<svg class="activelamp-logo" xmlns="http://www.w3.org/2000/svg" width="115" height="34.517" viewBox="0 0 115 34.517"><path class="al-normal" d="M35.461 29.677l-.551-.903a3.757 3.757 0 0 1-6.47-2.609v-1.504a3.757 3.757 0 0 1 3.762-3.762h2.508V18.14a2.515 2.515 0 0 0-2.508-2.508 2.515 2.515 0 0 0-2.508 2.508v1.504H28.44V18.14a3.757 3.757 0 0 1 3.762-3.762 3.756 3.756 0 0 1 3.761 3.762v11.536h-.502zm-.752-7.525h-2.508a2.516 2.516 0 0 0-2.508 2.509v1.504a2.515 2.515 0 0 0 2.508 2.508 2.515 2.515 0 0 0 2.508-2.508v-4.013zM41.606 29.928a3.757 3.757 0 0 1-3.762-3.763v-8.024a3.757 3.757 0 0 1 3.762-3.762 3.757 3.757 0 0 1 3.762 3.762v1.504h-1.254v-1.504a2.514 2.514 0 0 0-2.507-2.508 2.515 2.515 0 0 0-2.508 2.508v8.024a2.515 2.515 0 0 0 2.508 2.508 2.514 2.514 0 0 0 2.507-2.508v-1.504h1.254v1.504a3.757 3.757 0 0 1-3.762 3.763zM51.637 29.677a3.757 3.757 0 0 1-3.762-3.762V15.884h-1.254v-1.255h1.254v-2.508h1.253v2.508h3.762v1.255h-3.762v10.031a2.516 2.516 0 0 0 2.508 2.508h1.253v1.254h-1.252zM54.396 10.868V9.613h1.253v1.254h-1.253zm0 18.809V14.629h1.253v15.048h-1.253zM61.793 29.677h-1.254l-3.386-15.048h1.255l2.759 12.038 2.758-12.038h1.254l-3.386 15.048zM70.194 29.928a3.757 3.757 0 0 1-3.762-3.763v-8.024a3.757 3.757 0 0 1 3.762-3.762 3.757 3.757 0 0 1 3.762 3.762v4.012h-6.271v4.013a2.515 2.515 0 0 0 2.509 2.508 2.515 2.515 0 0 0 2.508-2.508v-1.504h1.254v1.504a3.758 3.758 0 0 1-3.762 3.762zm2.508-11.787a2.515 2.515 0 0 0-2.508-2.508 2.515 2.515 0 0 0-2.509 2.508V20.9h5.017v-2.759z"/><path class="al-bold" d="M76.038 29.677V9.613h1.955v20.063h-1.955zM86.972 29.677l-.401-.678a3.928 3.928 0 0 1-2.532.929 3.982 3.982 0 0 1-3.988-3.988v-1.454a3.98 3.98 0 0 1 3.988-3.987h2.056V18.19a2.067 2.067 0 0 0-2.056-2.057 2.068 2.068 0 0 0-2.058 2.057v1.806H80.05V18.19a3.982 3.982 0 0 1 3.988-3.988 3.982 3.982 0 0 1 3.986 3.988v11.486h-1.052zm-.878-7.248h-2.056a2.067 2.067 0 0 0-2.058 2.057v1.454c0 1.128.929 2.057 2.058 2.057a2.067 2.067 0 0 0 2.056-2.057v-3.511zM101.943 29.677V18.19a2.067 2.067 0 0 0-2.057-2.057 2.066 2.066 0 0 0-2.056 2.057v11.486h-1.932V18.19c0-1.128-.928-2.057-2.057-2.057s-2.057.929-2.057 2.057v11.486h-1.931V14.454h1.054l.401.652a3.995 3.995 0 0 1 2.532-.903c1.204 0 2.282.527 3.009 1.38a3.987 3.987 0 0 1 3.035-1.38 3.982 3.982 0 0 1 3.987 3.988v11.486h-1.928zM109.691 29.928a4.086 4.086 0 0 1-2.056-.577v5.166h-1.931V14.454h1.053l.401.652a3.997 3.997 0 0 1 2.532-.903 3.982 3.982 0 0 1 3.988 3.988v7.749a3.98 3.98 0 0 1-3.987 3.988zm2.058-11.738a2.068 2.068 0 0 0-2.058-2.057 2.067 2.067 0 0 0-2.056 2.057v7.749c0 1.128.928 2.031 2.056 2.031 1.129 0 2.058-.903 2.058-2.031V18.19z"/><g><path class="al-bold" d="M10.487 28.722c.332.531 2.602 3.026 6.625 2.426 4.725-.704 5.205-4.43 5.205-4.43-4.657 5.465-10.837 2.535-11.83 2.004zM18.755 13.295c3.852-.076 7.549-6.218 10.858-9.58C33.964-.703 38.878.74 40.212 1.326 34.701-1.214 30.901.831 25.78 6.18c-4.257 4.446-6.354 5.07-7.351 4.978.547-.351.875-.964.911-1.662.046-.88-.433-1.594-1.491-1.85-1.061-.256-2.015-.189-2.567 1.051-.675 1.515.444 4.657 3.473 4.598z"/><path class="al-bold" d="M25.864 11.935c-5.304 10.606-7.343 11.829-10.199 12.238-2.855.407-7.063-1.224-6.248-6.527.746-4.845 8.158-4.482 7.262.877.867-.968 1.971-6.151-4.062-6.366-2.131-.076-4.347 1.12-5.617 2.873-1.269 1.752-1.643 2.667-3.566 3.704C.726 20.195-.213 22.23.569 24.464c.724 2.068 4.034 2.661 5.165 1.31.961-1.303.284-2.889-1.323-2.871-1.116.014-1.609.871-1.615 1.768-.545-.274-1.465-1.044-.646-2.745.711-1.479 2.695-2.045 3.963-2.136.044 1.363.358 2.646.856 3.567 1.827 3.387 5.96 5.263 11.013 3.672 5.175-1.631 7.995-11.315 8.975-13.869 1.095-2.855 4.079-11.014 11.014-11.721-1.659-.061-6.804-.109-12.107 10.496zM8.206 21.146c-.424-.447-1.301-3.455-.301-5.329 1.489-2.792 4.091-2.407 4.091-2.407-5.296 1.443-3.79 7.736-3.79 7.736z"/></g><circle class="al-bold" cx="17.273" cy="9.404" r="2.113"/></svg>