<svg id="Layer_1" data-name="Layer 1" xmlns="http://www.w3.org/2000/svg" viewBox="0 0 116.18 116.22"><defs><style>.cls-1{fill:#fff}</style></defs><title>Artboard 1</title><path class="cls-1" d="M58.05 0A58.11 58.11 0 1 1 0 58.24 58.19 58.19 0 0 1 58.05 0zM6.23 58a51.85 51.85 0 1 0 52-51.75C29.74 6.06 6.35 29.4 6.23 58z"/><path class="cls-1" d="M61.42 72.14h-6.24v-8.36l-6.07 3.5L46 61.93c.65-.41 1.27-.81 1.91-1.19 2.1-1.24 4.19-2.5 6.32-3.68a1.67 1.67 0 0 0 1-1.7V26.09v-1.37h6.24v28.14l21.06-12.31 3.16 5.39-3.24 1.92c-6.63 3.87-13.25 7.75-19.9 11.58a2 2 0 0 0-1.16 2.08c.07 3.08 0 6.16 0 9.23.03.42.03.85.03 1.39zm18.82-28.52L50 61.26l1.5 2.52 30.2-17.62zM57 55.4a16.27 16.27 0 0 0 2-1.19 1.72 1.72 0 0 0 .65-1.12q.05-12.41 0-24.81c0-.3-.11-.84-.22-.85a6.43 6.43 0 0 0-2.11 0c-.19 0-.34.8-.34 1.23v25.29c.02.36.02.75.02 1.45zm2.69 5.76a20.94 20.94 0 0 0-1.92 1.12c-.32.23-.71.61-.73.95a26.67 26.67 0 0 0 0 3.83c0 .25.62.66.94.64.58 0 1.59.5 1.66-.53.15-1.89.05-3.8.05-6.01zM56.61 102.5v-5c0-1 .41-1.69 1.42-1.67s1.37.68 1.37 1.62v10.28c0 .94-.46 1.56-1.43 1.54s-1.36-.66-1.35-1.61c0-1.73-.01-3.45-.01-5.16zM56.61 14.19v-5c0-.92.33-1.61 1.33-1.64s1.46.66 1.46 1.64v10.2c0 .94-.46 1.6-1.41 1.6s-1.39-.63-1.38-1.6c.01-1.76 0-3.48 0-5.2zM40.09 25c-.34.33-.72 1-1.13 1a2.14 2.14 0 0 1-1.65-.76c-1.45-2.3-2.77-4.68-4.13-7-.4-.69-.82-1.38-1.17-2.09a1.38 1.38 0 0 1 2.42-1.31q2.66 4.56 5.29 9.13a7.27 7.27 0 0 1 .37 1.03zM77.67 26.13c-1.29.05-2.06-1-1.52-2 1.76-3.17 3.6-6.3 5.45-9.42a1.16 1.16 0 0 1 1.84-.36 1.92 1.92 0 0 1 .48 1.71c-1.72 3.19-3.56 6.32-5.4 9.44-.18.35-.67.5-.85.63zM77.7 90.63a3.64 3.64 0 0 1 1 .86c1.75 2.94 3.45 5.92 5.17 8.89a1.35 1.35 0 0 1-.43 2.06c-.85.49-1.52.14-2-.67-1.72-3-3.46-5.92-5.15-8.9-.65-1.13-.07-2.23 1.41-2.24zM40.1 91.79a8.59 8.59 0 0 1-.41 1.07c-1.71 3-3.4 6-5.2 8.91a2.08 2.08 0 0 1-1.65.76c-.36 0-.73-.79-1-1.29-.1-.21.12-.61.27-.88q2.53-4.43 5.08-8.84c.4-.7 1-1.12 1.79-.79.48.19.78.71 1.12 1.06zM101.08 84.67a12.11 12.11 0 0 1-1.22-.51q-4.35-2.5-8.69-5c-1-.58-1.24-1.58-.6-2.27a1.36 1.36 0 0 1 1.84-.22c3 1.75 6.09 3.47 9.08 5.3a1.91 1.91 0 0 1 .64 1.58c-.05.45-.7.76-1.05 1.12zM14.87 84.65c-.35-.35-.91-.66-1-1.09a2 2 0 0 1 .4-1.46 4.21 4.21 0 0 1 1.3-.83l7.86-4.55c.85-.49 1.64-.51 2.15.41s.09 1.53-.71 2l-8.8 5.08a9.32 9.32 0 0 1-1.2.44zM25.76 38.64c0 1.38-1.06 2.06-2 1.55-3.18-1.77-6.33-3.58-9.42-5.49a1.89 1.89 0 0 1-.41-1.7c.31-.87 1.19-.87 1.93-.49 1 .52 2 1.14 3 1.71 1.94 1.12 3.89 2.21 5.8 3.37a5.25 5.25 0 0 1 1.1 1.05zM90.27 38.62a3.68 3.68 0 0 1 .87-1c2.92-1.73 5.86-3.42 8.81-5.09.77-.44 1.59-.48 2.09.38a1.35 1.35 0 0 1-.66 2c-2.94 1.7-5.87 3.41-8.82 5.08-1.23.73-2.32.19-2.29-1.37zM13.88 57h5c.92 0 1.6.31 1.62 1.33s-.65 1.42-1.56 1.43H8.63c-.93 0-1.57-.45-1.56-1.43S7.79 57 8.73 57h5.15zM102.08 59.79h-4.79c-1 0-1.78-.23-1.87-1.38-.06-.92.58-1.41 1.81-1.41h9.83c1.22 0 1.9.5 1.82 1.39-.1 1.12-.9 1.39-1.88 1.39h-4.91z"/></svg>